#!OML:ASF H:\Not Pregnant\Project 1\Capture day 1\Session 1\non-pregnant.ASF
:FULLY-SPECIFIED
:DEGREES
1853
root -5.29769 15.8128 28.4926 -628.162 -85.8418 640.533
lowerback -1.82009 0.84726 2.27039
upperback -9.31203 1.02971 2.6819
thorax -8.77907 0.299728 1.53179
lowerneck 18.3549 -8.67258 -28.2537
upperneck -3.62742 -18.9742 40.4223
head 3.22925 -11.9279 19.8275
rclavicle 0 -5.1684e-015
rhumerus -56.6177 -42.2514 -33.0596
rradius 26.8867
rwrist 30.3264
rhand -2.90281 4.01451
rfingers 7.12502
rthumb 22.8072 -24.6571
lclavicle 0 -5.1684e-015
lhumerus -42.2035 -21.1921 101.493
lradius 32.493
lwrist 28.9581
lhand -2.14776 -12.182
lfingers 7.12502
lthumb 23.5317 16.3986
rfemur -19.6723 3.05948 -2.26806
rtibia 29.8285
rfoot -2.70658 -4.60489
rtoes -16.2374
lfemur -20.9882 0.34471 -6.06637
ltibia 28.9188
lfoot -21.0565 -5.37359
ltoes -39.2843
1854
root -5.27358 15.8167 28.5907 -629.264 -85.7319 641.585
lowerback -1.71017 0.888349 2.30337
upperback -9.18649 1.09458 2.62683
thorax -8.70294 0.332168 1.44815
lowerneck 18.5377 -8.76886 -27.9937
upperneck -4.08735 -18.967 40.5161
head 3.05451 -11.9534 19.8347
rclavicle 7.95139e-016 -1.70955e-014
rhumerus -56.7853 -42.4088 -33.2608
rradius 26.7969
rwrist 31.2907
rhand -2.58998 4.42479
rfingers 7.12502
rthumb 23.1074 -24.2096
lclavicle 7.95139e-016 -1.70955e-014
lhumerus -41.8035 -20.9962 100.635
lradius 32.2993
lwrist 29.5159
lhand -3.46427 -12.4149
lfingers 7.12502
lthumb 22.2683 16.3222
rfemur -20.2175 2.80314 -1.39715
rtibia 31.071
rfoot -4.77353 -4.00437
rtoes -16.9311
lfemur -21.2783 0.255867 -6.32011
ltibia 29.3232
lfoot -21.2013 -5.57317
ltoes -38.8005
1855
root -5.24915 15.82 28.6865 -630.756 -85.6057 643.018
lowerback -1.59051 0.931886 2.35361
upperback -9.05857 1.16367 2.56741
thorax -8.62952 0.365414 1.34999
lowerneck 18.721 -8.88041 -27.7235
upperneck -4.54432 -18.9791 40.6049
head 2.88671 -11.9893 19.8338
rclavicle -6.60959e-015 -3.10104e-014
rhumerus -56.9503 -42.5333 -33.5019
rradius 26.7505
rwrist 32.1583
rhand -2.22818 4.78707
rfingers 7.12502
rthumb 23.4545 -23.8034
lclavicle -6.60959e-015 -3.10104e-014
lhumerus -41.3715 -20.7384 99.7372
lradius 32.0933
lwrist 29.9856
lhand -4.84276 -12.6779
lfingers 7.12502
lthumb 20.9445 16.2113
rfemur -20.7293 2.41778 -0.43234
rtibia 32.2838
rfoot -6.75774 -3.3013
rtoes -18.0932
lfemur -21.5616 0.146485 -6.55363
ltibia 29.7119
lfoot -21.3391 -5.77827
ltoes -38.3174
1856
root -5.22504 15.8236 28.7786 -632.182 -85.4686 644.37
lowerback -1.4649 0.951672 2.38889
upperback -8.93179 1.20189 2.53993
thorax -8.56182 0.385701 1.29584
lowerneck 18.8889 -8.96379 -27.5319
upperneck -4.9434 -18.9793 40.6846
head 2.7407 -12.0169 19.8492
rclavicle -1.99282e-014 6.36111e-015
rhumerus -56.9888 -42.5647 -33.86
rradius 26.7237
rwrist 32.8721
rhand -1.88624 5.11124
rfingers 7.12502
rthumb 23.7825 -23.4369
lclavicle -1.99282e-014 6.36111e-015
lhumerus -40.9095 -20.2715 98.7663
lradius 31.86
lwrist 30.3132
lhand -6.20857 -12.9985
lfingers 7.12502
lthumb 19.6318 16.0302
rfemur -21.2144 1.94549 0.616527
rtibia 33.4635
rfoot -8.64899 -2.54938
rtoes -19.5521
lfemur -21.8079 0.0409513 -6.76662
ltibia 30.0679
lfoot -21.466 -5.98327
ltoes -37.837
1857
root -5.20135 15.8274 28.8678 -633.632 -85.3272 645.743
lowerback -1.34107 0.934714 2.3937
upperback -8.81758 1.19131 2.56332
thorax -8.50883 0.385512 1.31568
lowerneck 19.0409 -9.00031 -27.4642
upperneck -5.25903 -18.9577 40.7478
head 2.6236 -12.0288 19.8888
rclavicle 1.30701e-014 3.97569e-014
rhumerus -56.8813 -42.4685 -34.3501
rradius 26.7231
rwrist 33.4156
rhand -1.55994 5.38906
rfingers 7.12502
rthumb 24.0954 -23.118
lclavicle 1.30701e-014 3.97569e-014
lhumerus -40.4448 -19.5489 97.7481
lradius 31.6087
lwrist 30.517
lhand -7.57221 -13.3713
lfingers 7.12502
lthumb 18.3204 15.786
rfemur -21.6787 1.36461 1.72375
rtibia 34.6076
rfoot -10.453 -1.75523
rtoes -21.0069
lfemur -22.0276 -0.0665753 -6.969
ltibia 30.3822
lfoot -21.5751 -6.18796
ltoes -37.3762
1858
root -5.17832 15.8316 28.9547 -635.291 -85.2067 647.328
lowerback -1.22592 0.863118 2.34166
upperback -8.70893 1.10717 2.64692
thorax -8.45905 0.355043 1.43561
lowerneck 19.1177 -8.98751 -27.5751
upperneck -5.45649 -18.9213 40.796
head 2.56546 -12.0217 19.9555
rclavicle -4.77083e-015 1.23246e-014
rhumerus -56.5398 -42.2356 -35.007
rradius 26.714
rwrist 33.8341
rhand -1.31675 5.61144
rfingers 7.12502
rthumb 24.3286 -22.8645
lclavicle -4.77083e-015 1.23246e-014
lhumerus -39.9634 -18.5243 96.6853
lradius 31.3413
lwrist 30.59
lhand -8.92384 -13.7804
lfingers 7.12502
lthumb 17.0197 15.494
rfemur -22.1214 0.680085 2.84703
rtibia 35.7098
rfoot -12.1568 -0.96912
rtoes -22.3958
lfemur -22.2266 -0.199295 -7.1939
ltibia 30.6456
lfoot -21.6524 -6.39786
ltoes -36.886
1859
root -5.15598 15.8362 29.0383 -636.969 -85.105 648.938
lowerback -1.12015 0.749524 2.23147
upperback -8.61727 0.965288 2.77589
thorax -8.42354 0.301151 1.64011
lowerneck 19.1543 -8.9318 -27.7935
upperneck -5.55257 -18.8618 40.8051
head 2.53886 -11.9925 20.0254
rclavicle -4.96962e-016 -6.36111e-015
rhumerus -56.0573 -41.8875 -35.7622
rradius 26.7041
rwrist 34.1142
rhand -1.1495 5.7936
rfingers 7.12502
rthumb 24.4889 -22.6608
lclavicle -4.96962e-016 -6.36111e-015
lhumerus -39.5153 -17.253 95.588
lradius 31.0697
lwrist 30.537
lhand -10.1867 -14.2221
lfingers 7.12502
lthumb 15.8039 15.1528
rfemur -22.5471 -0.0436919 3.96858
rtibia 36.7675
rfoot -13.7306 -0.197554
rtoes -23.3338
lfemur -22.4022 -0.328511 -7.4336
ltibia 30.8572
lfoot -21.7089 -6.61461
ltoes -36.4029
1860
root -5.13448 15.8413 29.1189 -638.764 -85.0257 650.67
lowerback -1.01616 0.630028 2.07048
upperback -8.54056 0.813118 2.90712
thorax -8.40292 0.245392 1.87664
lowerneck 19.1806 -8.87065 -28.0266
upperneck -5.5976 -18.8064 40.7851
head 2.5261 -11.9605 20.0801
rclavicle -5.61567e-015 -2.22639e-014
rhumerus -55.576 -41.4879 -36.5229
rradius 26.703
rwrist 34.284
rhand -1.02112 5.93686
rfingers 7.12502
rthumb 24.612 -22.5008
lclavicle -5.61567e-015 -2.22639e-014
lhumerus -39.1243 -15.9407 94.5103
lradius 30.8374
lwrist 30.4645
lhand -11.4197 -14.6056
lfingers 7.12502
lthumb 14.6161 14.8594
rfemur -22.9487 -0.687793 5.06826
rtibia 37.7829
rfoot -15.1508 0.4684
rtoes -23.8182
lfemur -22.5513 -0.462907 -7.69562
ltibia 31.0157
lfoot -21.7425 -6.84661
ltoes -35.8933
1861
root -5.11367 15.8466 29.1974 -640.768 -84.9643 652.619
lowerback -0.915116 0.543536 1.89214
upperback -8.47601 0.701768 2.98358
thorax -8.39258 0.20879 2.06289
lowerneck 19.2238 -8.85778 -28.137
upperneck -5.64906 -18.7934 40.743
head 2.50692 -11.9505 20.0861
rclavicle -1.05356e-014 7.55382e-015
rhumerus -55.2534 -41.1369 -37.1949
rradius 26.7207
rwrist 34.3815
rhand -0.901208 6.04483
rfingers 7.12502
rthumb 24.7269 -22.3771
lclavicle -1.05356e-014 7.55382e-015
lhumerus -38.7838 -14.7895 93.4605
lradius 30.6595
lwrist 30.3866
lhand -12.5597 -14.8849
lfingers 7.12502
lthumb 13.5176 14.6564
rfemur -23.3381 -1.25244 6.1521
rtibia 38.759
rfoot -16.4078 0.984645
rtoes -24.1195
lfemur -22.6866 -0.606043 -7.98136
ltibia 31.1274
lfoot -21.7577 -7.08973
ltoes -35.3695
1862
root -5.09369 15.852 29.2721 -642.693 -84.9227 654.494
lowerback -0.815869 0.503651 1.69562
upperback -8.41829 0.649182 2.99429
thorax -8.38836 0.200114 2.18628
lowerneck 19.2874 -8.90144 -28.1057
upperneck -5.71671 -18.8311 40.6915
head 2.48129 -11.9691 20.0452
rclavicle -3.32964e-015 -2.94201e-014
rhumerus -55.1251 -40.8737 -37.7564
rradius 26.7697
rwrist 34.3877
rhand -0.786343 6.12644
rfingers 7.12502
rthumb 24.837 -22.2804
lclavicle -3.32964e-015 -2.94201e-014
lhumerus -38.497 -13.8935 92.4641
lradius 30.5802
lwrist 30.4572
lhand -13.7122 -14.9869
lfingers 7.12502
lthumb 12.4066 14.625
rfemur -23.7214 -1.67432 7.22043
rtibia 39.6994
rfoot -17.5238 1.3506
rtoes -24.229
lfemur -22.7978 -0.727272 -8.28188
ltibia 31.2001
lfoot -21.7678 -7.33818
ltoes -34.8554
1863
root -5.07435 15.857 29.3439 -644.635 -84.892 656.4
lowerback -0.725225 0.474323 1.47361
upperback -8.37395 0.608174 2.99116
thorax -8.39394 0.198154 2.30898
lowerneck 19.3404 -8.95606 -28.0419
upperneck -5.75164 -18.8808 40.6167
head 2.46319 -11.9906 19.9799
rclavicle 1.2921e-015 -3.49861e-014
rhumerus -55.0248 -40.5974 -38.3049
rradius 26.8194
rwrist 34.3337
rhand -0.684249 6.1748
rfingers 7.12502
rthumb 24.9348 -22.2185
lclavicle 1.2921e-015 -3.49861e-014
lhumerus -38.253 -13.0733 91.5049
lradius 30.5635
lwrist 30.597
lhand -14.7978 -14.9859
lfingers 7.12502
lthumb 11.3597 14.6864
rfemur -24.1072 -1.96257 8.27313
rtibia 40.6053
rfoot -18.5163 1.58603
rtoes -24.1877
lfemur -22.9077 -0.830562 -8.59329
ltibia 31.2494
lfoot -21.7791 -7.59608
ltoes -34.3567
1864
root -5.05567 15.8613 29.4129 -646.626 -84.8793 658.372
lowerback -0.651142 0.443562 1.22427
upperback -8.34322 0.562229 2.97784
thorax -8.40458 0.19499 2.43695
lowerneck 19.3747 -9.0027 -28.007
upperneck -5.73482 -18.9412 40.5559
head 2.47204 -12.017 19.9255
rclavicle -3.35449e-015 -4.37326e-015
rhumerus -54.9405 -40.3197 -38.8454
rradius 26.8673
rwrist 34.2491
rhand -0.64628 6.19978
rfingers 7.12502
rthumb 24.9712 -22.1885
lclavicle -3.35449e-015 -4.37326e-015
lhumerus -38.0413 -12.268 90.5504
lradius 30.5793
lwrist 30.7687
lhand -15.7647 -14.9615
lfingers 7.12502
lthumb 10.4271 14.7599
rfemur -24.5045 -2.18248 9.29834
rtibia 41.475
rfoot -19.4173 1.77447
rtoes -24.0145
lfemur -23.0288 -0.922764 -8.9234
ltibia 31.2894
lfoot -21.7936 -7.85253
ltoes -33.8651
1865
root -5.03761 15.8646 29.4787 -648.397 -84.8705 660.145
lowerback -0.596249 0.423411 0.973183
upperback -8.32548 0.528438 2.95504
thorax -8.4184 0.197214 2.55544
lowerneck 19.4024 -9.04413 -27.9956
upperneck -5.68237 -19.0145 40.5155
head 2.50261 -12.0515 19.8852
rclavicle 4.24902e-015 -2.0276e-014
rhumerus -54.8706 -40.0396 -39.3735
rradius 26.9051
rwrist 34.0939
rhand -0.674954 6.20614
rfingers 7.12502
rthumb 24.9437 -22.1859
lclavicle 4.24902e-015 -2.0276e-014
lhumerus -37.8675 -11.5254 89.6205
lradius 30.6234
lwrist 30.9724
lhand -16.6677 -14.9434
lfingers 7.12502
lthumb 9.55595 14.8199
rfemur -24.9207 -2.3278 10.3235
rtibia 42.3034
rfoot -20.2413 1.91863
rtoes -23.7916
lfemur -23.1658 -0.987776 -9.24502
ltibia 31.3368
lfoot -21.815 -8.12187
ltoes -33.3102
1866
root -5.02037 15.8665 29.5421 -650.041 -84.8754 661.811
lowerback -0.568128 0.406422 0.723615
upperback -8.3158 0.496727 2.92024
thorax -8.42514 0.199564 2.66041
lowerneck 19.4035 -9.08515 -27.9908
upperneck -5.59095 -19.096 40.4787
head 2.55292 -12.0881 19.8439
rclavicle -9.93923e-017 -1.78906e-014
rhumerus -54.8246 -39.7849 -39.8839
rradius 26.9452
rwrist 33.9126
rhand -0.807209 6.19872
rfingers 7.12502
rthumb 24.817 -22.2109
lclavicle -9.93923e-017 -1.78906e-014
lhumerus -37.731 -10.8555 88.7271
lradius 30.7013
lwrist 31.2443
lhand -17.5654 -14.9436
lfingers 7.12502
lthumb 8.68976 14.8576
rfemur -25.3538 -2.45064 11.3351
rtibia 43.084
rfoot -21.0137 2.05
rtoes -23.6405
lfemur -23.3247 -1.03932 -9.57288
ltibia 31.4031
lfoot -21.8501 -8.37586
ltoes -32.7468
1867
root -5.00385 15.867 29.6034 -651.589 -84.8847 663.401
lowerback -0.564914 0.382156 0.483948
upperback -8.31267 0.454378 2.88906
thorax -8.42386 0.195684 2.76452
lowerneck 19.365 -9.11949 -28.0122
upperneck -5.45578 -19.1762 40.4325
head 2.62316 -12.1189 19.7987
rclavicle -7.45443e-016 -1.31198e-014
rhumerus -54.7579 -39.5397 -40.3907
rradius 26.9723
rwrist 33.716
rhand -0.986252 6.17945
rfingers 7.12502
rthumb 24.6454 -22.2537
lclavicle -7.45443e-016 -1.31198e-014
lhumerus -37.6365 -10.2333 87.8765
lradius 30.8099
lwrist 31.5465
lhand -18.4444 -14.9621
lfingers 7.12502
lthumb 7.84144 14.8724
rfemur -25.7962 -2.5522 12.3374
rtibia 43.8072
rfoot -21.737 2.18427
rtoes -23.556
lfemur -23.5115 -1.07604 -9.90041
ltibia 31.4979
lfoot -21.9032 -8.61422
ltoes -32.1667
